<svg xmlns="http://www.w3.org/2000/svg" width="42.477" height="42.477" viewBox="0 0 42.477 42.477">
  <g id="Group_175" data-name="Group 175" transform="translate(-296.968 -143.027)">
    <path id="Path_1" data-name="Path 1" d="M339.445,164.266a21.223,21.223,0,1,1-13.592-19.819A21.238,21.238,0,0,1,339.445,164.266Z" transform="translate(0 0)"/>
    <g id="Group_1" data-name="Group 1" transform="translate(299.832 145.734)">
      <path id="Path_2" data-name="Path 2" d="M309.864,212.26l.09-.408,2.3.508-.114.516-1.058-.234.926.832-.1.43-1.191.368,1.058.234-.114.516-2.3-.508.091-.411,1.833-.56Z" transform="translate(-309.366 -198.662)" fill="#fff"/>
      <path id="Path_3" data-name="Path 3" d="M318.416,195.169l.271-.481.033,0,2.517.27-.282.5-.456-.048-.522.927.279.362-.282.5-1.537-2.012Zm.746.1.467.611.3-.531Z" transform="translate(-316.326 -185.463)" fill="#fff"/>
      <path id="Path_4" data-name="Path 4" d="M331.4,177.371l.852.192-.444.442-.781-.173-.4.4.475.477-.375.373-1.662-1.67.971-.967a.84.84,0,0,1,1.366.924Zm-.551-.549a.315.315,0,0,0-.443,0l-.6.594.439.441.6-.594A.312.312,0,0,0,330.847,176.822Z" transform="translate(-324.511 -171.246)" fill="#fff"/>
      <path id="Path_5" data-name="Path 5" d="M349.085,164.23a.721.721,0,0,1-.275.981l-1.256.705-.259-.461,1.256-.705a.194.194,0,0,0,.073-.261.192.192,0,0,0-.261-.073l-.719.4a.722.722,0,0,1-.707-1.259l1.256-.705.259.461-1.256.705a.194.194,0,0,0-.073.261.192.192,0,0,0,.261.073l.719-.4A.722.722,0,0,1,349.085,164.23Z" transform="translate(-337.976 -160.982)" fill="#fff"/>
      <path id="Path_6" data-name="Path 6" d="M366.4,159.411l1.342-.334.128.513-1.855.462-.57-2.286.513-.128Z" transform="translate(-352.494 -156.97)" fill="#fff"/>
      <path id="Path_7" data-name="Path 7" d="M386.009,155.285l-.006.384,1.514.024-.009.531-1.514-.024-.006.384,1.514.024-.009.528-2.046-.033.038-2.356,2.046.033-.009.528Z" transform="translate(-367.875 -154.748)" fill="#fff"/>
      <path id="Path_8" data-name="Path 8" d="M405.006,157.728l.529.156,0,.033.3,2.514-.552-.163-.055-.455-1.02-.3-.29.353-.552-.163,1.617-1.949Zm.067.75-.49.592.584.172Z" transform="translate(-381.658 -157.04)" fill="#fff"/>
      <path id="Path_9" data-name="Path 9" d="M424.842,166.88a1.179,1.179,0,0,1-1.626.365l-.9-.569,1.261-1.991.9.569A1.179,1.179,0,0,1,424.842,166.88Zm-.449-.285a.649.649,0,0,0-.2-.895l-.449-.285-.7,1.1.449.285A.649.649,0,0,0,424.393,166.6Z" transform="translate(-396.228 -162.39)" fill="#fff"/>
      <path id="Path_10" data-name="Path 10" d="M439.3,178.4l-.283.259,1.021,1.118-.392.359-1.021-1.118-.283.259,1.021,1.118-.39.356-1.38-1.511,1.739-1.589,1.38,1.511-.39.356Z" transform="translate(-407.977 -172.359)" fill="#fff"/>
      <path id="Path_11" data-name="Path 11" d="M450.485,196.479l-.442.753-.286-.557.4-.691-.26-.506-.6.308-.242-.47,2.1-1.078.627,1.218a.84.84,0,0,1-1.3,1.022Zm.69-.359a.314.314,0,0,0,.135-.422l-.385-.749-.554.285.385.749A.312.312,0,0,0,451.175,196.12Z" transform="translate(-416.792 -185.117)" fill="#fff"/>
      <path id="Path_12" data-name="Path 12" d="M457.73,217.109a.721.721,0,0,1-.849-.563l-.287-1.412.518-.105.287,1.412a.194.194,0,0,0,.226.15.192.192,0,0,0,.15-.226l-.164-.808a.722.722,0,0,1,1.415-.287l.287,1.412-.518.105-.287-1.412a.2.2,0,0,0-.226-.15.192.192,0,0,0-.15.226l.164.808A.722.722,0,0,1,457.73,217.109Z" transform="translate(-422.587 -200.846)" fill="#fff"/>
    </g>
    <g id="Group_2" data-name="Group 2" transform="translate(310.987 179.478)">
      <path id="Path_13" data-name="Path 13" d="M383.111,304.36c.075.238.156.474.222.715a1.045,1.045,0,0,0,.8.787,3.387,3.387,0,0,1,.706.267c-.226.071-.448.155-.678.212a1.06,1.06,0,0,0-.838.835,3.072,3.072,0,0,1-.258.68c-.072-.226-.157-.448-.214-.677a1.067,1.067,0,0,0-.836-.837,3.22,3.22,0,0,1-.68-.256c.218-.07.433-.155.655-.208a1.08,1.08,0,0,0,.866-.865c.052-.221.135-.434.2-.65Z" transform="translate(-375.866 -303.546)" fill="#fff"/>
      <path id="Path_14" data-name="Path 14" d="M358.783,300.837c.047.15.1.3.14.452a.66.66,0,0,0,.5.5,2.138,2.138,0,0,1,.446.169c-.142.045-.283.1-.428.134a.67.67,0,0,0-.529.527,1.946,1.946,0,0,1-.163.43c-.046-.143-.1-.283-.135-.428a.674.674,0,0,0-.528-.529,2.05,2.05,0,0,1-.429-.162c.138-.045.273-.1.413-.131a.683.683,0,0,0,.547-.547c.033-.139.085-.274.129-.41Z" transform="translate(-357.66 -300.837)" fill="#fff"/>
      <path id="Path_15" data-name="Path 15" d="M411.718,300.837c.047.15.1.3.14.452a.66.66,0,0,0,.5.5,2.136,2.136,0,0,1,.446.169c-.143.045-.283.1-.428.134a.67.67,0,0,0-.529.527,1.938,1.938,0,0,1-.163.43c-.046-.143-.1-.283-.135-.428a.673.673,0,0,0-.528-.529,2.046,2.046,0,0,1-.429-.162c.138-.045.273-.1.413-.131a.682.682,0,0,0,.547-.547c.033-.139.085-.274.129-.41Z" transform="translate(-398.368 -300.837)" fill="#fff"/>
    </g>
    <g id="Mars" transform="translate(304.078 150.137)">
      <g id="Mars-2" data-name="Mars" transform="translate(0 0)">
        <g id="Group_3" data-name="Group 3">
          <circle id="Ellipse_1" data-name="Ellipse 1" cx="14.128" cy="14.128" r="14.128" fill="#b3191a"/>
        </g>
        <g id="Group_4" data-name="Group 4" transform="translate(21.106 16.424)">
          <path id="Path_16" data-name="Path 16" d="M419.5,252.037a.95.95,0,0,0-.276,1.12.8.8,0,0,0,.688.347,1.578,1.578,0,0,0,.761-.238,6.323,6.323,0,0,0,1.807-1.828l1.5-2a6.288,6.288,0,0,0,1.291-2.376,1.819,1.819,0,0,0-.478-1.79,2.764,2.764,0,0,0-2.566-.076c-.852.307-1.619.538-2.026,1.443a2.46,2.46,0,0,0,.206,2.295c.357.59.986,1.4.436,2.079C420.48,251.453,419.905,251.65,419.5,252.037Z" transform="translate(-419.128 -244.914)" fill="#c92526"/>
        </g>
        <g id="Group_5" data-name="Group 5" transform="translate(7.583 13.274)">
          <path id="Path_17" data-name="Path 17" d="M362.325,231.41a3.364,3.364,0,0,0-1.112.873,2.576,2.576,0,0,0-.561.877,1.15,1.15,0,0,0,.1,1.006,1.416,1.416,0,0,0,1.453.409,11.4,11.4,0,0,1,1.553-.368,3.478,3.478,0,0,0,1.441-.107,1.111,1.111,0,0,0,.523-1.172,1.633,1.633,0,0,0-.8-1.067A3.21,3.21,0,0,0,362.325,231.41Z" transform="translate(-360.581 -231.278)" fill="#830c20"/>
        </g>
        <g id="Group_6" data-name="Group 6" transform="translate(7.583 13.075)">
          <path id="Path_18" data-name="Path 18" d="M361.213,231.62a3.365,3.365,0,0,1,1.112-.873,3.21,3.21,0,0,1,2.6.451,1.633,1.633,0,0,1,.8,1.067c.006.034.01.069.013.1a1.146,1.146,0,0,0-.013-.3,1.632,1.632,0,0,0-.8-1.067,3.21,3.21,0,0,0-2.6-.451,3.364,3.364,0,0,0-1.112.873,2.574,2.574,0,0,0-.561.877,1.326,1.326,0,0,0-.066.523,1.358,1.358,0,0,1,.066-.325A2.576,2.576,0,0,1,361.213,231.62Z" transform="translate(-360.582 -230.417)" fill="#c92526"/>
        </g>
        <g id="Group_7" data-name="Group 7" transform="translate(11.436 4.384)">
          <path id="Path_19" data-name="Path 19" d="M378.143,193.259c-.428.2-.884.541-.88,1.015a.93.93,0,0,0,.714.817,2.235,2.235,0,0,0,1.149-.061,4.849,4.849,0,0,1,1.139-.225,1.733,1.733,0,0,0,.689-.058.82.82,0,0,0,.254-1.137C380.508,192.382,379.183,192.766,378.143,193.259Z" transform="translate(-377.263 -192.789)" fill="#830c20"/>
        </g>
        <g id="Group_8" data-name="Group 8" transform="translate(11.436 4.118)">
          <path id="Path_20" data-name="Path 20" d="M378.143,192.375c1.039-.492,2.364-.877,3.066.352a.931.931,0,0,1,.111.335.967.967,0,0,0-.111-.6c-.7-1.229-2.026-.844-3.066-.352-.428.2-.884.541-.88,1.015a.683.683,0,0,0,.014.126A1.422,1.422,0,0,1,378.143,192.375Z" transform="translate(-377.263 -191.64)" fill="#c92526"/>
        </g>
        <g id="Group_9" data-name="Group 9" transform="translate(22.549 17.199)">
          <path id="Path_21" data-name="Path 21" d="M425.535,249.13a1.052,1.052,0,0,0-.135.807,3.114,3.114,0,0,0,.307.78,3.691,3.691,0,0,0,.466.768,1.242,1.242,0,0,0,.756.45,1.293,1.293,0,0,0,.984-.357,2.1,2.1,0,0,0,.693-1.79c-.067-.585-.545-1.582-1.24-1.516A3.8,3.8,0,0,0,425.535,249.13Z" transform="translate(-425.374 -248.269)" fill="#830c20"/>
        </g>
        <g id="Group_10" data-name="Group 10" transform="translate(24.36 17.199)">
          <path id="Path_22" data-name="Path 22" d="M434.9,249.789c-.067-.585-.545-1.582-1.24-1.516l-.07.009c.589.113.984.978,1.045,1.506a2.1,2.1,0,0,1-.693,1.79,1.438,1.438,0,0,1-.728.355l.009,0a1.293,1.293,0,0,0,.984-.357A2.1,2.1,0,0,0,434.9,249.789Z" transform="translate(-433.213 -248.269)" fill="#e23606"/>
        </g>
        <g id="Group_11" data-name="Group 11" transform="translate(17.428 8.546)">
          <path id="Path_23" data-name="Path 23" d="M403.758,212.514a.929.929,0,0,0,1.008-.084,1.149,1.149,0,0,0,.422-.943.735.735,0,0,0-.261-.581,1.485,1.485,0,0,0-1.712.644C403.125,211.871,403.5,212.364,403.758,212.514Z" transform="translate(-403.202 -210.81)" fill="#830c20"/>
        </g>
        <g id="Group_12" data-name="Group 12" transform="translate(17.428 8.281)">
          <path id="Path_24" data-name="Path 24" d="M404.928,210.023a.693.693,0,0,1,.254.49,1.2,1.2,0,0,0,.007-.175.735.735,0,0,0-.261-.58,1.485,1.485,0,0,0-1.712.644.479.479,0,0,0,.006.247A1.5,1.5,0,0,1,404.928,210.023Z" transform="translate(-403.203 -209.662)" fill="#c92526"/>
        </g>
        <g id="Group_13" data-name="Group 13" transform="translate(0.706 9.69)">
          <path id="Path_25" data-name="Path 25" d="M330.812,219.431a2.72,2.72,0,0,0,1.857,2.61c.356.08.728.058,1.087.124a1.1,1.1,0,0,1,.863.593,1.114,1.114,0,0,1-.475,1.192c-.359.285-.8.457-1.143.762a.874.874,0,1,0,1.08,1.34,14.314,14.314,0,0,0,1.127-1.1c1.652-1.4,3.77.349,5.324,1.156a6.215,6.215,0,0,0,4.341.868,2.224,2.224,0,0,0,1.571-1.257,1.278,1.278,0,0,0-.778-1.674,3.159,3.159,0,0,0-1.425.268,4.351,4.351,0,0,1-2.9-.465,3.4,3.4,0,0,0-1.167-.475,12.214,12.214,0,0,1-1.266.053,3.094,3.094,0,0,1-1.779-.965c-.4-.44-.437-1-.8-1.426-.674-.8-1.954-.751-2.609-1.6a3.142,3.142,0,0,1-.354-2.118c.016-.486.166-1.712-.641-1.543-.584.122-1.2,1.108-1.445,1.589A4.1,4.1,0,0,0,330.812,219.431Z" transform="translate(-330.808 -215.762)" fill="#c92526"/>
        </g>
        <g id="Group_14" data-name="Group 14" transform="translate(15.426 1.187)">
          <path id="Path_26" data-name="Path 26" d="M396.12,184.355a2.066,2.066,0,0,1-1.089-1.595c0-.492.274-.976.168-1.456-.119-.537-.695-.936-.661-1.485a.9.9,0,0,1,.5-.707,1.721,1.721,0,0,1,.878-.162,3.254,3.254,0,0,1,2.431,1.275c.432.574.7,1.317,1.317,1.681a6.259,6.259,0,0,0,1.982.383,3.806,3.806,0,0,1,2.327,1.749,11.3,11.3,0,0,1,1.15,2.749l1.15,3.616a5.414,5.414,0,0,1,.322,1.481,1.824,1.824,0,0,1-.505,1.387,1.116,1.116,0,0,1-1.392.132c-.5-.39-.456-1.148-.4-1.784a14.574,14.574,0,0,0-.73-5.95,3.027,3.027,0,0,0-1.665-2.092,2.233,2.233,0,0,0-1.752.277c-.558.323-1.063,1.178-1.715,1.233A4.114,4.114,0,0,1,396.12,184.355Z" transform="translate(-394.536 -178.948)" fill="#c92526"/>
        </g>
        <g id="Group_15" data-name="Group 15" transform="translate(2.936 22.749)">
          <path id="Path_27" data-name="Path 27" d="M351.652,277.808a14.063,14.063,0,0,0,8.413-2.777,10.594,10.594,0,0,0-1.117.355c-.9.292-1.868.261-2.765.555a20.233,20.233,0,0,0-2.242,1.156,5.087,5.087,0,0,1-4.651-.244,8.887,8.887,0,0,0-1.977-1.078,10.315,10.315,0,0,1-2.4-1.145,23.159,23.159,0,0,0-3-1.973,4.112,4.112,0,0,0-1.452-.356A14.1,14.1,0,0,0,351.652,277.808Z" transform="translate(-340.459 -272.301)" fill="#c92526"/>
        </g>
        <g id="Group_16" data-name="Group 16" transform="translate(14.351 24.603)">
          <path id="Path_28" data-name="Path 28" d="M392.839,280.976l1.809-.53a1.972,1.972,0,0,1,.737-.117.671.671,0,0,1,.583.405c.128.382-.255.763-.648.853s-.805,0-1.2.06a6.052,6.052,0,0,0-1.7.772c-.357.173-2.78.874-2.514-.13C390.087,281.593,392.251,281.148,392.839,280.976Z" transform="translate(-389.883 -280.325)" fill="#830c20"/>
        </g>
        <g id="Group_17" data-name="Group 17" transform="translate(14.351 24.337)">
          <path id="Path_29" data-name="Path 29" d="M392.839,280.093l1.809-.53a1.973,1.973,0,0,1,.737-.117.671.671,0,0,1,.583.405c0,.008,0,.015.006.023a.485.485,0,0,0-.006-.288.671.671,0,0,0-.583-.405,1.973,1.973,0,0,0-.737.117l-1.809.53c-.587.172-2.751.617-2.936,1.312a.432.432,0,0,0,0,.264C390.091,280.709,392.252,280.264,392.839,280.093Z" transform="translate(-389.883 -279.176)" fill="#c92526"/>
        </g>
        <g id="Group_18" data-name="Group 18" transform="translate(1.396 10.894)">
          <path id="Path_30" data-name="Path 30" d="M333.794,222.739a1.42,1.42,0,0,0,.97,1.379c.312.071.71-.071.763-.386s-.254-.563-.46-.811a1.549,1.549,0,0,1-.346-1.06c.014-.288.31-.669,0-.832C334.019,220.654,333.784,222.406,333.794,222.739Z" transform="translate(-333.794 -220.977)" fill="#830c20"/>
        </g>
        <g id="Group_19" data-name="Group 19" transform="translate(2.052 10.762)">
          <path id="Path_31" data-name="Path 31" d="M337.451,222.347a1.55,1.55,0,0,1-.347-1.06c.014-.287.31-.669,0-.832a.358.358,0,0,0-.473.093.362.362,0,0,1,.274.04c.306.163.01.544,0,.832a1.549,1.549,0,0,0,.346,1.06c.206.248.513.493.46.811a.409.409,0,0,1-.109.215.468.468,0,0,0,.308-.347C337.964,222.84,337.657,222.595,337.451,222.347Z" transform="translate(-336.635 -220.404)" fill="#e23606"/>
        </g>
        <g id="Group_21" data-name="Group 21" transform="translate(11.878 17.115)">
          <g id="Group_20" data-name="Group 20">
            <path id="Path_32" data-name="Path 32" d="M380.385,248.611a2.782,2.782,0,0,1-.522-.186,2.423,2.423,0,0,1-.387-.234,1.669,1.669,0,0,1-.135-.109.96.96,0,0,1-.1-.09c-.05-.052-.076-.082-.073-.085s.121.1.33.245a2.747,2.747,0,0,0,.386.217,3.05,3.05,0,0,0,.512.177,3.016,3.016,0,0,0,.536.073,2.747,2.747,0,0,0,.442-.019c.251-.032.4-.081.405-.069a.372.372,0,0,1-.1.043.97.97,0,0,1-.126.037,1.645,1.645,0,0,1-.17.036,2.415,2.415,0,0,1-.451.034A2.781,2.781,0,0,1,380.385,248.611Z" transform="translate(-379.173 -247.907)" fill="#c92526"/>
          </g>
        </g>
        <g id="Group_23" data-name="Group 23" transform="translate(15.882 17.463)">
          <g id="Group_22" data-name="Group 22">
            <path id="Path_33" data-name="Path 33" d="M397.344,250.409a1.6,1.6,0,0,0-.51-.771c-.186-.155-.329-.212-.323-.223a.3.3,0,0,1,.1.035,1.3,1.3,0,0,1,.251.151,1.512,1.512,0,0,1,.505,1.747,1.305,1.305,0,0,1-.131.262c-.039.058-.064.086-.067.084s.08-.131.155-.361A1.6,1.6,0,0,0,397.344,250.409Z" transform="translate(-396.51 -249.415)" fill="#c92526"/>
          </g>
        </g>
        <g id="Group_25" data-name="Group 25" transform="translate(4.138 19.79)">
          <g id="Group_24" data-name="Group 24">
            <path id="Path_34" data-name="Path 34" d="M345.762,260.786a2.276,2.276,0,0,1,.658-1.018,1.966,1.966,0,0,1,.3-.219.477.477,0,0,1,.121-.06c.007.011-.164.1-.387.314a2.315,2.315,0,0,0-.676,2.184c.064.3.153.473.142.478a.465.465,0,0,1-.066-.118,1.952,1.952,0,0,1-.121-.349A2.274,2.274,0,0,1,345.762,260.786Z" transform="translate(-345.663 -259.488)" fill="#c92526"/>
          </g>
        </g>
        <g id="Group_27" data-name="Group 27" transform="translate(1.017 16.255)">
          <g id="Group_26" data-name="Group 26">
            <path id="Path_35" data-name="Path 35" d="M332.345,245.781a4.467,4.467,0,0,1-.188-1.125,3.108,3.108,0,0,1,0-.346.46.46,0,0,1,.016-.126c.011,0,.005.181.026.469a5.053,5.053,0,0,0,.65,2.144c.143.252.248.4.239.4a.469.469,0,0,1-.083-.1,3.122,3.122,0,0,1-.2-.285A4.461,4.461,0,0,1,332.345,245.781Z" transform="translate(-332.154 -244.184)" fill="#c92526"/>
          </g>
        </g>
        <g id="Group_29" data-name="Group 29" transform="translate(2.962 16.414)">
          <g id="Group_28" data-name="Group 28">
            <path id="Path_36" data-name="Path 36" d="M341.375,245.1a.672.672,0,0,0-.551-.167c-.155.018-.244.067-.249.056a.457.457,0,0,1,.242-.1.74.74,0,0,1,.289,0,.62.62,0,0,1,.316.166.55.55,0,0,1,.094.614.379.379,0,0,1-.127.149c-.039.025-.064.032-.065.029a.648.648,0,0,0,.15-.2.531.531,0,0,0,.034-.261A.5.5,0,0,0,341.375,245.1Z" transform="translate(-340.575 -244.874)" fill="#c92526"/>
          </g>
        </g>
        <g id="Group_31" data-name="Group 31" transform="translate(3.489 9.485)">
          <g id="Group_30" data-name="Group 30">
            <path id="Path_37" data-name="Path 37" d="M343.278,215.683a1.18,1.18,0,0,1-.143.641.587.587,0,0,1-.168.214c-.009-.007.057-.087.127-.235a1.236,1.236,0,0,0-.081-1.21c-.088-.138-.164-.208-.157-.216a.582.582,0,0,1,.2.19A1.179,1.179,0,0,1,343.278,215.683Z" transform="translate(-342.856 -214.876)" fill="#c92526"/>
          </g>
        </g>
        <g id="Group_33" data-name="Group 33" transform="translate(0.678 9.561)">
          <g id="Group_32" data-name="Group 32">
            <path id="Path_38" data-name="Path 38" d="M331.184,215.846a4.306,4.306,0,0,0-.5.82.866.866,0,0,1,.084-.273,2.437,2.437,0,0,1,.871-1.053.87.87,0,0,1,.252-.134A4.311,4.311,0,0,0,331.184,215.846Z" transform="translate(-330.687 -215.204)" fill="#c92526"/>
          </g>
        </g>
        <g id="Group_35" data-name="Group 35" transform="translate(6.921 15.573)">
          <g id="Group_34" data-name="Group 34">
            <path id="Path_39" data-name="Path 39" d="M358.4,242.121a2.356,2.356,0,0,1-.542-.592,1.028,1.028,0,0,1-.147-.3c.01-.005.068.107.185.272a2.689,2.689,0,0,0,1.227.95c.189.073.312.1.309.112a1.027,1.027,0,0,1-.325-.067A2.359,2.359,0,0,1,358.4,242.121Z" transform="translate(-357.715 -241.231)" fill="#c92526"/>
          </g>
        </g>
        <g id="Group_37" data-name="Group 37" transform="translate(12.776 27.092)">
          <g id="Group_36" data-name="Group 36">
            <path id="Path_40" data-name="Path 40" d="M384.488,291.563a3.921,3.921,0,0,1-1.031-.259,2.7,2.7,0,0,1-.292-.137.4.4,0,0,1-.1-.063c.005-.01.156.064.409.155a4.448,4.448,0,0,0,2.071.228c.267-.034.431-.074.433-.063a.41.41,0,0,1-.112.039,2.743,2.743,0,0,1-.315.07A3.923,3.923,0,0,1,384.488,291.563Z" transform="translate(-383.064 -291.103)" fill="#c92526"/>
          </g>
        </g>
        <g id="Group_39" data-name="Group 39" transform="translate(17.027 24.1)">
          <g id="Group_38" data-name="Group 38">
            <path id="Path_41" data-name="Path 41" d="M402.562,278.347a4.408,4.408,0,0,0-.783.309,3.273,3.273,0,0,1-.312.161,1.306,1.306,0,0,1,.29-.2,3.52,3.52,0,0,1,1.631-.464,1.3,1.3,0,0,1,.353.019,3.257,3.257,0,0,1-.35.028A4.4,4.4,0,0,0,402.562,278.347Z" transform="translate(-401.466 -278.15)" fill="#c92526"/>
          </g>
        </g>
        <g id="Group_41" data-name="Group 41" transform="translate(25.022 21.095)">
          <g id="Group_40" data-name="Group 40">
            <path id="Path_42" data-name="Path 42" d="M436.727,266.086a4.4,4.4,0,0,1-.432.595,1.125,1.125,0,0,1-.216.215c-.016-.014.3-.357.591-.844s.455-.922.474-.915a1.122,1.122,0,0,1-.09.291A4.408,4.408,0,0,1,436.727,266.086Z" transform="translate(-436.079 -265.137)" fill="#c92526"/>
          </g>
        </g>
        <g id="Group_43" data-name="Group 43" transform="translate(27.419 14.274)">
          <g id="Group_42" data-name="Group 42">
            <path id="Path_43" data-name="Path 43" d="M446.937,236.864a5.548,5.548,0,0,1-.3.848,1.62,1.62,0,0,1-.176.329,2.872,2.872,0,0,1,.133-.347,7.561,7.561,0,0,0,.464-1.721,2.862,2.862,0,0,1,.059-.367,1.63,1.63,0,0,1-.013.373A5.55,5.55,0,0,1,446.937,236.864Z" transform="translate(-446.456 -235.606)" fill="#c92526"/>
          </g>
        </g>
        <g id="Group_45" data-name="Group 45" transform="translate(24.719 14.697)">
          <g id="Group_44" data-name="Group 44">
            <path id="Path_44" data-name="Path 44" d="M435.154,238.459a1.487,1.487,0,0,0,.639.429c.19.065.317.073.316.084a.214.214,0,0,1-.09,0,1.154,1.154,0,0,1-.24-.043,1.384,1.384,0,0,1-1-1.163,1.179,1.179,0,0,1-.006-.244.218.218,0,0,1,.017-.088c.012,0,0,.127.035.325A1.489,1.489,0,0,0,435.154,238.459Z" transform="translate(-434.77 -237.438)" fill="#c92526"/>
          </g>
        </g>
        <g id="Group_47" data-name="Group 47" transform="translate(26.731 9.24)">
          <g id="Group_46" data-name="Group 46">
            <path id="Path_45" data-name="Path 45" d="M443.8,215.281c-.074-.408-.159-.773-.224-1.037a3.749,3.749,0,0,1-.1-.43.4.4,0,0,1,.046.11c.026.072.06.177.1.308a10.382,10.382,0,0,1,.381,2.095c.01.136.015.246.016.323a.413.413,0,0,1,0,.119,3.591,3.591,0,0,1-.058-.437C443.927,216.06,443.878,215.688,443.8,215.281Z" transform="translate(-443.479 -213.814)" fill="#c92526"/>
          </g>
        </g>
        <g id="Group_49" data-name="Group 49" transform="translate(20.596 3.755)">
          <g id="Group_48" data-name="Group 48">
            <path id="Path_46" data-name="Path 46" d="M418.115,190.422a6.092,6.092,0,0,0,.876.1,3.063,3.063,0,0,1,.367.018,1.523,1.523,0,0,1-.368.029,4.581,4.581,0,0,1-1.742-.338,1.5,1.5,0,0,1-.331-.165,3.11,3.11,0,0,1,.347.121A6.06,6.06,0,0,0,418.115,190.422Z" transform="translate(-416.918 -190.067)" fill="#c92526"/>
          </g>
        </g>
        <g id="Group_51" data-name="Group 51" transform="translate(15.275 0.754)">
          <g id="Group_50" data-name="Group 50">
            <path id="Path_47" data-name="Path 47" d="M395.532,177.172a5.557,5.557,0,0,0-1.168-.008c-.3.03-.481.068-.483.057a.5.5,0,0,1,.126-.038,3.32,3.32,0,0,1,.352-.065,4.749,4.749,0,0,1,2.328.268,3.327,3.327,0,0,1,.328.143.5.5,0,0,1,.114.066c0,.01-.174-.068-.458-.165A5.541,5.541,0,0,0,395.532,177.172Z" transform="translate(-393.881 -177.075)" fill="#c92526"/>
          </g>
        </g>
        <g id="Group_53" data-name="Group 53" transform="translate(20.054 1.923)">
          <g id="Group_52" data-name="Group 52">
            <path id="Path_48" data-name="Path 48" d="M415.314,182.913a3.244,3.244,0,0,1-.561-.52,1.091,1.091,0,0,1-.183-.259,4.577,4.577,0,0,0,1.712,1.249,1.106,1.106,0,0,1-.3-.1A3.255,3.255,0,0,1,415.314,182.913Z" transform="translate(-414.57 -182.134)" fill="#c92526"/>
          </g>
        </g>
        <g id="Group_55" data-name="Group 55" transform="translate(16.316 6.798)">
          <g id="Group_54" data-name="Group 54">
            <path id="Path_49" data-name="Path 49" d="M399.028,203.918a1.579,1.579,0,0,1-.506-.434.693.693,0,0,1-.133-.241c.01-.006.062.085.17.212a1.774,1.774,0,0,0,1.114.6c.165.022.27.016.27.027a.694.694,0,0,1-.275.019A1.579,1.579,0,0,1,399.028,203.918Z" transform="translate(-398.388 -203.242)" fill="#c92526"/>
          </g>
        </g>
        <g id="Group_57" data-name="Group 57" transform="translate(19.884 6.583)">
          <g id="Group_56" data-name="Group 56">
            <path id="Path_50" data-name="Path 50" d="M414.263,202.986a3.49,3.49,0,0,0-.425.874.849.849,0,0,1,.055-.285,2.195,2.195,0,0,1,.814-1.123.857.857,0,0,1,.254-.142A3.5,3.5,0,0,0,414.263,202.986Z" transform="translate(-413.836 -202.309)" fill="#c92526"/>
          </g>
        </g>
        <g id="Group_59" data-name="Group 59" transform="translate(15.1 3.039)">
          <g id="Group_58" data-name="Group 58">
            <path id="Path_51" data-name="Path 51" d="M393.5,187.646a5.706,5.706,0,0,0-.375-.677,2.014,2.014,0,0,1,.591,1.419A5.712,5.712,0,0,0,393.5,187.646Z" transform="translate(-393.123 -186.969)" fill="#c92526"/>
          </g>
        </g>
        <g id="Group_61" data-name="Group 61" transform="translate(12.445 6.658)">
          <g id="Group_60" data-name="Group 60">
            <path id="Path_52" data-name="Path 52" d="M382.946,203.079a4.517,4.517,0,0,1-.933.077c-.12,0-.217-.01-.283-.019a.317.317,0,0,1-.1-.019,3.77,3.77,0,0,1,.386-.009,5.6,5.6,0,0,0,1.813-.341,3.668,3.668,0,0,1,.363-.132s-.03.024-.088.055-.147.074-.257.12A4.521,4.521,0,0,1,382.946,203.079Z" transform="translate(-381.627 -202.635)" fill="#c92526"/>
          </g>
        </g>
        <g id="Group_63" data-name="Group 63" transform="translate(22.423 6.085)">
          <g id="Group_62" data-name="Group 62">
            <path id="Path_53" data-name="Path 53" d="M425.918,200.741a1.84,1.84,0,0,0-.734-.482c-.215-.076-.359-.088-.358-.1a.271.271,0,0,1,.1,0,1.469,1.469,0,0,1,.271.055,1.706,1.706,0,0,1,1.182,1.289,1.447,1.447,0,0,1,.031.274.268.268,0,0,1-.008.1c-.012,0-.012-.144-.069-.365A1.837,1.837,0,0,0,425.918,200.741Z" transform="translate(-424.826 -200.155)" fill="#c92526"/>
          </g>
        </g>
        <g id="Group_65" data-name="Group 65" transform="translate(24.464 9.076)">
          <g id="Group_64" data-name="Group 64">
            <path id="Path_54" data-name="Path 54" d="M433.947,214.239a6.1,6.1,0,0,0-.185-.806,2.559,2.559,0,0,1-.1-.331,1.366,1.366,0,0,1,.141.316,4.46,4.46,0,0,1,.257,1.645,1.362,1.362,0,0,1-.038.344,2.6,2.6,0,0,1-.009-.345A6.1,6.1,0,0,0,433.947,214.239Z" transform="translate(-433.664 -213.102)" fill="#c92526"/>
          </g>
        </g>
        <g id="Group_67" data-name="Group 67" transform="translate(25.222 6.073)">
          <g id="Group_66" data-name="Group 66">
            <path id="Path_55" data-name="Path 55" d="M437.689,201.462a5.191,5.191,0,0,0-.49-.978c-.152-.236-.261-.373-.252-.38s.034.028.086.088a3.064,3.064,0,0,1,.205.266,4.407,4.407,0,0,1,.766,2.059,3.108,3.108,0,0,1,.018.335.44.44,0,0,1-.008.123c-.011,0-.018-.174-.057-.453A5.187,5.187,0,0,0,437.689,201.462Z" transform="translate(-436.946 -200.103)" fill="#c92526"/>
          </g>
        </g>
        <g id="Group_69" data-name="Group 69" transform="translate(0.341 12.318)">
          <g id="Group_68" data-name="Group 68">
            <path id="Path_56" data-name="Path 56" d="M329.233,228.56a3.386,3.386,0,0,1,.086-1.018,2.4,2.4,0,0,1,.091-.3.372.372,0,0,1,.047-.1c.011,0-.041.157-.092.41a3.8,3.8,0,0,0,.134,1.99c.085.245.157.389.146.394a.374.374,0,0,1-.061-.1,2.4,2.4,0,0,1-.13-.282A3.386,3.386,0,0,1,329.233,228.56Z" transform="translate(-329.225 -227.142)" fill="#c92526"/>
          </g>
        </g>
        <g id="Group_71" data-name="Group 71" transform="translate(4.145 13.482)">
          <g id="Group_70" data-name="Group 70">
            <path id="Path_57" data-name="Path 57" d="M347.238,232.935a4.366,4.366,0,0,1-.642-.21,3.878,3.878,0,0,1-.491-.25c-.068-.038-.126-.08-.178-.115a1.542,1.542,0,0,1-.129-.094.523.523,0,0,1-.1-.089c.007-.01.162.107.433.257a4.443,4.443,0,0,0,.491.234,4.378,4.378,0,0,0,1.291.3,4.531,4.531,0,0,0,.544.01c.31-.014.5-.049.5-.037a.537.537,0,0,1-.132.034,1.56,1.56,0,0,1-.157.027c-.062.008-.132.019-.21.023a3.848,3.848,0,0,1-.551,0A4.384,4.384,0,0,1,347.238,232.935Z" transform="translate(-345.695 -232.178)" fill="#c92526"/>
          </g>
        </g>
        <g id="Group_73" data-name="Group 73" transform="translate(11.406 12.88)">
          <g id="Group_72" data-name="Group 72">
            <path id="Path_58" data-name="Path 58" d="M377.923,229.916a1.568,1.568,0,0,0-.543-.275c-.152-.042-.251-.048-.25-.059a.616.616,0,0,1,.262.014,1.4,1.4,0,0,1,.969.762.618.618,0,0,1,.075.251c-.011,0-.04-.092-.117-.23A1.572,1.572,0,0,0,377.923,229.916Z" transform="translate(-377.13 -229.574)" fill="#c92526"/>
          </g>
        </g>
        <g id="Group_75" data-name="Group 75" transform="translate(9.946 16.93)">
          <g id="Group_74" data-name="Group 74">
            <path id="Path_59" data-name="Path 59" d="M371.638,247.339a5.958,5.958,0,0,0-.826-.224.758.758,0,0,1,.255.007,2.527,2.527,0,0,1,1.137.45.75.75,0,0,1,.191.169A5.917,5.917,0,0,0,371.638,247.339Z" transform="translate(-370.812 -247.109)" fill="#c92526"/>
          </g>
        </g>
        <g id="Group_77" data-name="Group 77" transform="translate(12.803 20.996)">
          <g id="Group_76" data-name="Group 76">
            <path id="Path_60" data-name="Path 60" d="M384.669,265.136a4.464,4.464,0,0,1-1.061-.008,3.044,3.044,0,0,1-.317-.056.4.4,0,0,1-.113-.034c0-.011.167.019.435.043a5.2,5.2,0,0,0,2.074-.233c.256-.083.41-.149.415-.139a.409.409,0,0,1-.1.058,3.089,3.089,0,0,1-.3.125A4.467,4.467,0,0,1,384.669,265.136Z" transform="translate(-383.178 -264.709)" fill="#c92526"/>
          </g>
        </g>
        <g id="Group_79" data-name="Group 79" transform="translate(6.242 18.96)">
          <g id="Group_78" data-name="Group 78">
            <path id="Path_61" data-name="Path 61" d="M356.294,256.042a3.714,3.714,0,0,0-.588-.084,3.429,3.429,0,0,0-.486.008c-.276.025-.444.068-.446.057a.417.417,0,0,1,.115-.04,1.2,1.2,0,0,1,.139-.033c.055-.01.117-.024.187-.031a3,3,0,0,1,.493-.022,3.148,3.148,0,0,1,1.173.274,2.972,2.972,0,0,1,.432.239c.06.037.109.077.154.11a1.233,1.233,0,0,1,.11.091c.058.053.089.083.086.087s-.139-.1-.375-.249a3.421,3.421,0,0,0-.432-.222A3.728,3.728,0,0,0,356.294,256.042Z" transform="translate(-354.774 -255.895)" fill="#c92526"/>
          </g>
        </g>
        <g id="Group_81" data-name="Group 81" transform="translate(15.962 1.744)">
          <g id="Group_80" data-name="Group 80">
            <path id="Path_62" data-name="Path 62" d="M397.861,181.363a1.312,1.312,0,0,1,.794.238,1.166,1.166,0,0,1,.191.167c.021.021.034.041.045.053s.014.019.013.02a2.024,2.024,0,0,0-.263-.221,1.3,1.3,0,0,0-1.54.057,2.043,2.043,0,0,0-.246.24s0-.008.012-.021.021-.033.04-.056a1.179,1.179,0,0,1,.179-.181A1.313,1.313,0,0,1,397.861,181.363Z" transform="translate(-396.856 -181.363)" fill="#b3191a"/>
          </g>
        </g>
        <g id="Group_83" data-name="Group 83" transform="translate(18.767 2.69)">
          <g id="Group_82" data-name="Group 82">
            <path id="Path_63" data-name="Path 63" d="M409.425,186.412a1.54,1.54,0,0,0,.631.394,2.921,2.921,0,0,0,.3.073.351.351,0,0,1-.085,0,1.3,1.3,0,0,1-.226-.047,1.463,1.463,0,0,1-1.011-1.059,1.292,1.292,0,0,1-.036-.228.363.363,0,0,1,0-.085,3.073,3.073,0,0,0,.059.307A1.542,1.542,0,0,0,409.425,186.412Z" transform="translate(-409 -185.457)" fill="#b3191a"/>
          </g>
        </g>
        <g id="Group_85" data-name="Group 85" transform="translate(16.744 3.597)">
          <g id="Group_84" data-name="Group 84">
            <path id="Path_64" data-name="Path 64" d="M400.344,190.686a1.143,1.143,0,0,0,.254.439.967.967,0,0,0,.344.231.934.934,0,0,0,.379.058.086.086,0,0,1-.027.006.5.5,0,0,1-.078.007.793.793,0,0,1-.283-.049.965.965,0,0,1-.357-.232,1.15,1.15,0,0,1-.263-.45,1.826,1.826,0,0,1-.018-.939c.026-.118.053-.212.074-.276a.585.585,0,0,1,.036-.1.692.692,0,0,1-.024.1c-.017.065-.041.16-.064.278A1.881,1.881,0,0,0,400.344,190.686Z" transform="translate(-400.242 -189.382)" fill="#b3191a"/>
          </g>
        </g>
        <g id="Group_87" data-name="Group 87" transform="translate(18.307 6.075)">
          <g id="Group_86" data-name="Group 86">
            <path id="Path_65" data-name="Path 65" d="M407.96,200.572a2.509,2.509,0,0,0,.613-.294c.146-.1.227-.169.231-.165a.33.33,0,0,1-.054.054,1.674,1.674,0,0,1-.164.13,2.266,2.266,0,0,1-1.3.414,1.633,1.633,0,0,1-.209-.011.36.36,0,0,1-.075-.012c0-.006.109.006.284,0A2.515,2.515,0,0,0,407.96,200.572Z" transform="translate(-407.007 -200.113)" fill="#b3191a"/>
          </g>
        </g>
        <g id="Group_89" data-name="Group 89" transform="translate(21.618 4.95)">
          <g id="Group_88" data-name="Group 88">
            <path id="Path_66" data-name="Path 66" d="M423.351,196.036a4.727,4.727,0,0,1,.632.569c.086.1.17.191.238.286s.133.181.186.264a3.357,3.357,0,0,1,.3.564.237.237,0,0,1-.023-.038l-.059-.112a1.986,1.986,0,0,0-.1-.176c-.041-.067-.083-.145-.141-.225s-.116-.171-.189-.26-.152-.184-.238-.282a4.455,4.455,0,0,0-1.354-1c-.119-.053-.23-.106-.34-.144s-.21-.075-.3-.1-.181-.048-.257-.068-.142-.032-.2-.041l-.125-.023a.227.227,0,0,1-.043-.01,3.34,3.34,0,0,1,.628.119,3.2,3.2,0,0,1,.308.1c.111.037.223.089.343.142A4.747,4.747,0,0,1,423.351,196.036Z" transform="translate(-421.341 -195.24)" fill="#b3191a"/>
          </g>
        </g>
        <g id="Group_91" data-name="Group 91" transform="translate(25.269 8.245)">
          <g id="Group_90" data-name="Group 90">
            <path id="Path_67" data-name="Path 67" d="M437.533,211.437a7.857,7.857,0,0,1-.033,1.4c-.021.178-.042.321-.061.419l-.022.113a.173.173,0,0,1-.01.039.182.182,0,0,1,0-.04l.016-.114c.015-.1.033-.242.05-.419a8.391,8.391,0,0,0-.184-2.766c-.041-.173-.078-.313-.106-.409l-.03-.111a.176.176,0,0,1-.009-.039.189.189,0,0,1,.015.037l.037.109c.032.095.072.234.116.407A7.847,7.847,0,0,1,437.533,211.437Z" transform="translate(-437.148 -209.504)" fill="#b3191a"/>
          </g>
        </g>
        <g id="Group_93" data-name="Group 93" transform="translate(26.328 12.12)">
          <g id="Group_92" data-name="Group 92">
            <path id="Path_68" data-name="Path 68" d="M442.4,227.909a2.516,2.516,0,0,1-.355,1.171,2.315,2.315,0,0,1-.217.3c-.028.034-.052.058-.068.076a.149.149,0,0,1-.026.024s.03-.039.084-.108a2.7,2.7,0,0,0,.207-.308,2.528,2.528,0,0,0,.105-2.347,2.69,2.69,0,0,0-.178-.325c-.048-.074-.076-.113-.073-.115a.141.141,0,0,1,.023.027c.014.018.036.045.061.081a2.287,2.287,0,0,1,.189.322A2.518,2.518,0,0,1,442.4,227.909Z" transform="translate(-441.734 -226.281)" fill="#b3191a"/>
          </g>
        </g>
        <g id="Group_95" data-name="Group 95" transform="translate(23.136 16.804)">
          <g id="Group_94" data-name="Group 94">
            <path id="Path_69" data-name="Path 69" d="M429.076,246.657a3,3,0,0,1,.925-.091,2.312,2.312,0,0,1,.28.033.052.052,0,1,1,0,.013c-.066-.009-.161-.017-.28-.022a3.161,3.161,0,0,0-1.764.458c-.1.062-.181.115-.234.155a.643.643,0,0,1-.085.058.579.579,0,0,1,.077-.069,2.274,2.274,0,0,1,.229-.165A2.989,2.989,0,0,1,429.076,246.657Z" transform="translate(-427.917 -246.561)" fill="#b3191a"/>
          </g>
        </g>
        <g id="Group_97" data-name="Group 97" transform="translate(25.698 17.27)">
          <g id="Group_96" data-name="Group 96">
            <path id="Path_70" data-name="Path 70" d="M439.787,250.207a4.182,4.182,0,0,1-.226.6,3.715,3.715,0,0,1-.258.455,2.906,2.906,0,0,1-.21.283l-.062.073a.139.139,0,0,1-.023.024.12.12,0,0,1,.018-.028l.057-.076c.051-.065.121-.163.2-.288a4.014,4.014,0,0,0,.249-.455,3.97,3.97,0,0,0,.346-1.218,4.021,4.021,0,0,0,.027-.518c0-.148-.009-.268-.019-.35l-.009-.095a.135.135,0,0,1,0-.034.121.121,0,0,1,.007.033l.015.094a2.983,2.983,0,0,1,.029.351,3.7,3.7,0,0,1-.02.522A4.188,4.188,0,0,1,439.787,250.207Z" transform="translate(-439.008 -248.578)" fill="#b3191a"/>
          </g>
        </g>
        <g id="Group_99" data-name="Group 99" transform="translate(21.442 23.887)">
          <g id="Group_98" data-name="Group 98">
            <path id="Path_71" data-name="Path 71" d="M420.789,277.94a.621.621,0,0,0,.313.1,1.107,1.107,0,0,0,.275-.02c.155-.031.25-.058.252-.053a.28.28,0,0,1-.065.025c-.042.014-.1.033-.182.05a1.047,1.047,0,0,1-.281.028.636.636,0,0,1-.33-.108.433.433,0,0,1-.183-.293.42.42,0,0,1,.185-.417.175.175,0,0,1,.063-.03.521.521,0,0,0-.175.18.4.4,0,0,0-.043.262A.41.41,0,0,0,420.789,277.94Z" transform="translate(-420.582 -277.227)" fill="#b3191a"/>
          </g>
        </g>
        <g id="Group_101" data-name="Group 101" transform="translate(22.404 19.13)">
          <g id="Group_100" data-name="Group 100">
            <path id="Path_72" data-name="Path 72" d="M425.2,257.772a3.492,3.492,0,0,0,.549.674c.081.077.149.137.2.176a.549.549,0,0,1,.073.065.538.538,0,0,1-.081-.055,2.33,2.33,0,0,1-.206-.169,3.177,3.177,0,0,1-.917-1.476,2.388,2.388,0,0,1-.061-.259.522.522,0,0,1-.013-.1.566.566,0,0,1,.026.094c.014.061.037.149.07.255A3.493,3.493,0,0,0,425.2,257.772Z" transform="translate(-424.743 -256.632)" fill="#b3191a"/>
          </g>
        </g>
        <g id="Group_103" data-name="Group 103" transform="translate(23.818 21.406)">
          <g id="Group_102" data-name="Group 102">
            <path id="Path_73" data-name="Path 73" d="M431.594,267.332a4.484,4.484,0,0,1-.495.513c-.069.06-.126.107-.166.138a.384.384,0,0,1-.065.045.369.369,0,0,1,.057-.055c.038-.034.093-.083.159-.145a5.375,5.375,0,0,0,.9-1.093c.048-.077.086-.14.112-.184a.353.353,0,0,1,.043-.067.36.36,0,0,1-.032.073c-.022.046-.057.111-.1.19A4.493,4.493,0,0,1,431.594,267.332Z" transform="translate(-430.868 -266.484)" fill="#b3191a"/>
          </g>
        </g>
        <g id="Group_105" data-name="Group 105" transform="translate(18.097 26.333)">
          <g id="Group_104" data-name="Group 104">
            <path id="Path_74" data-name="Path 74" d="M407.428,288.378c.361-.14.682-.282.911-.389l.272-.128a.687.687,0,0,1,.1-.044.709.709,0,0,1-.1.056c-.062.034-.154.082-.268.138-.228.113-.548.258-.91.4s-.7.248-.941.318c-.122.035-.222.062-.291.078a.681.681,0,0,1-.108.023.763.763,0,0,1,.1-.035l.287-.088C406.734,288.629,407.067,288.517,407.428,288.378Z" transform="translate(-406.1 -287.816)" fill="#b3191a"/>
          </g>
        </g>
        <g id="Group_107" data-name="Group 107" transform="translate(9.006 26.625)">
          <g id="Group_106" data-name="Group 106">
            <path id="Path_75" data-name="Path 75" d="M367.771,289.577a4.876,4.876,0,0,0,.784.2c.1.017.185.029.243.036a.476.476,0,0,1,.089.015.461.461,0,0,1-.091,0c-.058,0-.142-.011-.246-.025a4.21,4.21,0,0,1-1.532-.531c-.09-.053-.161-.1-.209-.132a.461.461,0,0,1-.072-.055.485.485,0,0,1,.079.044c.05.03.122.073.213.122A4.894,4.894,0,0,0,367.771,289.577Z" transform="translate(-366.739 -289.081)" fill="#b3191a"/>
          </g>
        </g>
        <g id="Group_109" data-name="Group 109" transform="translate(5.355 25.06)">
          <g id="Group_108" data-name="Group 108">
            <path id="Path_76" data-name="Path 76" d="M351.721,282.817a4.949,4.949,0,0,0,.608.269c.08.029.145.052.191.067a.332.332,0,0,1,.07.027.309.309,0,0,1-.073-.015c-.047-.011-.113-.03-.195-.057a4,4,0,0,1-1.18-.624c-.068-.052-.121-.1-.157-.129a.315.315,0,0,1-.053-.052.328.328,0,0,1,.061.042c.038.029.093.07.163.12A4.965,4.965,0,0,0,351.721,282.817Z" transform="translate(-350.932 -282.303)" fill="#b3191a"/>
          </g>
        </g>
        <g id="Group_111" data-name="Group 111" transform="translate(5.672 24.523)">
          <g id="Group_110" data-name="Group 110">
            <path id="Path_77" data-name="Path 77" d="M352.924,280.4a4.752,4.752,0,0,0,.472.24,2.2,2.2,0,0,1,.2.09.2.2,0,0,1-.058-.014c-.037-.011-.089-.029-.152-.054a3.5,3.5,0,0,1-.918-.537c-.053-.043-.094-.08-.122-.106s-.042-.042-.041-.043a2.172,2.172,0,0,1,.177.131A4.758,4.758,0,0,0,352.924,280.4Z" transform="translate(-352.306 -279.98)" fill="#b3191a"/>
          </g>
        </g>
        <g id="Group_113" data-name="Group 113" transform="translate(4.069 23.496)">
          <g id="Group_112" data-name="Group 112">
            <path id="Path_78" data-name="Path 78" d="M345.783,275.885a4.511,4.511,0,0,1,.394.374,8.886,8.886,0,0,1-.81-.724A4.486,4.486,0,0,1,345.783,275.885Z" transform="translate(-345.366 -275.535)" fill="#b3191a"/>
          </g>
        </g>
        <g id="Group_115" data-name="Group 115" transform="translate(2.875 18.543)">
          <g id="Group_114" data-name="Group 114">
            <path id="Path_79" data-name="Path 79" d="M340.332,254.735a.438.438,0,0,0-.1.3.274.274,0,0,0,.162.2.291.291,0,0,0,.177.024c.042-.009.063-.023.065-.02a.161.161,0,0,1-.062.032.287.287,0,0,1-.189-.015.3.3,0,0,1-.182-.212.458.458,0,0,1,.1-.328,2.664,2.664,0,0,1,.408-.467c.059-.053.109-.093.145-.12a.245.245,0,0,1,.058-.038s-.073.065-.186.175A3.1,3.1,0,0,0,340.332,254.735Z" transform="translate(-340.198 -254.091)" fill="#b3191a"/>
          </g>
        </g>
        <g id="Group_117" data-name="Group 117" transform="translate(4.119 17.877)">
          <g id="Group_116" data-name="Group 116">
            <path id="Path_80" data-name="Path 80" d="M347.367,251.387a4.541,4.541,0,0,1,.812-.161c.127-.009.248-.02.361-.018a3.009,3.009,0,0,1,.315.01,3.192,3.192,0,0,1,.614.1.2.2,0,0,1-.043,0l-.122-.02a1.872,1.872,0,0,0-.193-.028c-.076-.008-.162-.021-.258-.023a3.129,3.129,0,0,0-.313-.006c-.112,0-.232.011-.358.021a4.259,4.259,0,0,0-1.565.476c-.11.062-.217.118-.31.182s-.18.122-.257.179-.142.114-.2.162a1.884,1.884,0,0,0-.145.13l-.09.085a.224.224,0,0,1-.033.028,3.2,3.2,0,0,1,.455-.424,3.086,3.086,0,0,1,.256-.183c.093-.065.2-.123.31-.186A4.538,4.538,0,0,1,347.367,251.387Z" transform="translate(-345.582 -251.208)" fill="#b3191a"/>
          </g>
        </g>
        <g id="Group_119" data-name="Group 119" transform="translate(9.498 18.967)">
          <g id="Group_118" data-name="Group 118">
            <path id="Path_81" data-name="Path 81" d="M370.684,256.99a5.647,5.647,0,0,0,.8.2,5.185,5.185,0,0,0,.668.072c.1.007.182,0,.258,0s.142,0,.2,0l.124,0a.226.226,0,0,1,.043,0,.212.212,0,0,1-.043.006l-.123.011c-.053.005-.119.01-.2.01s-.164.006-.26,0a4.917,4.917,0,0,1-.672-.065,5.031,5.031,0,0,1-1.56-.535,4.939,4.939,0,0,1-.571-.361c-.079-.055-.145-.112-.2-.159s-.109-.091-.148-.128l-.091-.084a.214.214,0,0,1-.03-.031.223.223,0,0,1,.035.026l.094.079c.04.035.09.078.151.123s.127.1.207.155a5.185,5.185,0,0,0,.571.353A5.692,5.692,0,0,0,370.684,256.99Z" transform="translate(-368.871 -255.925)" fill="#b3191a"/>
          </g>
        </g>
        <g id="Group_121" data-name="Group 121" transform="translate(14.523 18.252)">
          <g id="Group_120" data-name="Group 120">
            <path id="Path_82" data-name="Path 82" d="M392.024,254.115a.933.933,0,0,1-.44.438,1.543,1.543,0,0,1-.49.139,3.431,3.431,0,0,1-.342.025l-.093,0a.131.131,0,0,1-.033,0,.119.119,0,0,1,.032,0l.093-.008c.081-.007.2-.014.34-.036a1.568,1.568,0,0,0,.48-.143.913.913,0,0,0,.424-.424.7.7,0,0,0-.022-.588,1.25,1.25,0,0,0-.3-.395c-.107-.1-.2-.165-.266-.213l-.074-.056a.122.122,0,0,1-.025-.021.109.109,0,0,1,.028.016l.078.051a2.813,2.813,0,0,1,.274.206,1.239,1.239,0,0,1,.317.4.843.843,0,0,1,.081.293A.668.668,0,0,1,392.024,254.115Z" transform="translate(-390.626 -252.828)" fill="#b3191a"/>
          </g>
        </g>
        <g id="Group_123" data-name="Group 123" transform="translate(10.394 17.849)">
          <g id="Group_122" data-name="Group 122">
            <path id="Path_83" data-name="Path 83" d="M374,251.79c-.2-.054-.383-.1-.548-.165a1.7,1.7,0,0,1-.417-.214.908.908,0,0,1-.223-.224.5.5,0,0,1-.056-.1,1.085,1.085,0,0,0,.293.307,1.759,1.759,0,0,0,.414.2c.164.06.351.108.547.162l1,.281.3.089.082.026a.1.1,0,0,1,.028.011.121.121,0,0,1-.03,0l-.083-.02-.3-.079Z" transform="translate(-372.751 -251.085)" fill="#b3191a"/>
          </g>
        </g>
        <g id="Group_125" data-name="Group 125" transform="translate(6.18 15.63)">
          <g id="Group_124" data-name="Group 124">
            <path id="Path_84" data-name="Path 84" d="M354.844,242.6a1.709,1.709,0,0,1-.322-.771,1.524,1.524,0,0,1-.017-.254.415.415,0,0,1,.008-.093,3.336,3.336,0,0,0,.033.343,1.739,1.739,0,0,0,.96,1.276,3.386,3.386,0,0,0,.321.127.429.429,0,0,1-.091-.019,1.5,1.5,0,0,1-.24-.087A1.712,1.712,0,0,1,354.844,242.6Z" transform="translate(-354.505 -241.478)" fill="#b3191a"/>
          </g>
        </g>
        <g id="Group_127" data-name="Group 127" transform="translate(3.893 14.432)">
          <g id="Group_126" data-name="Group 126">
            <path id="Path_85" data-name="Path 85" d="M345.705,236.634a2.392,2.392,0,0,0-.4-.2,2.136,2.136,0,0,0-.356-.1c-.207-.037-.339-.033-.339-.04a.467.467,0,0,1,.092,0,1.533,1.533,0,0,1,.251.021,1.984,1.984,0,0,1,.362.092,2.095,2.095,0,0,1,.771.483,1.971,1.971,0,0,1,.24.286,1.538,1.538,0,0,1,.128.216.469.469,0,0,1,.037.085c-.006,0-.06-.117-.184-.288a2.139,2.139,0,0,0-.243-.278A2.365,2.365,0,0,0,345.705,236.634Z" transform="translate(-344.606 -236.294)" fill="#b3191a"/>
          </g>
        </g>
        <g id="Group_129" data-name="Group 129" transform="translate(1.515 14.468)">
          <g id="Group_128" data-name="Group 128">
            <path id="Path_86" data-name="Path 86" d="M335.6,237.611a3.439,3.439,0,0,0,.644.229c.1.021.2.044.294.054a2.36,2.36,0,0,0,.259.024c.079.007.152,0,.215,0a1.41,1.41,0,0,0,.162-.008l.1-.008a.15.15,0,0,1,.036,0,2.29,2.29,0,0,1-.517.037,2.24,2.24,0,0,1-.262-.02,2.98,2.98,0,0,1-.3-.051,3.068,3.068,0,0,1-1.236-.6,2.917,2.917,0,0,1-.225-.2,2.19,2.19,0,0,1-.179-.193,2.279,2.279,0,0,1-.292-.428.142.142,0,0,1,.022.029l.058.085a1.408,1.408,0,0,0,.094.132c.039.05.081.109.136.167a2.321,2.321,0,0,0,.18.188c.065.067.144.129.225.2A3.438,3.438,0,0,0,335.6,237.611Z" transform="translate(-334.31 -236.45)" fill="#b3191a"/>
          </g>
        </g>
        <g id="Group_131" data-name="Group 131" transform="translate(1.05 12.34)">
          <g id="Group_130" data-name="Group 130">
            <path id="Path_87" data-name="Path 87" d="M332.326,227.942a3.446,3.446,0,0,1-.03-.5c0-.064,0-.116.007-.152a.184.184,0,0,1,.008-.055,1.785,1.785,0,0,1,.008.206,4.644,4.644,0,0,0,.131.984,1.8,1.8,0,0,1,.046.2.189.189,0,0,1-.022-.051c-.013-.034-.029-.083-.047-.144A3.457,3.457,0,0,1,332.326,227.942Z" transform="translate(-332.296 -227.236)" fill="#b3191a"/>
          </g>
        </g>
        <g id="Group_133" data-name="Group 133" transform="translate(2.48 10.021)">
          <g id="Group_132" data-name="Group 132">
            <path id="Path_88" data-name="Path 88" d="M339.1,217.848a1.2,1.2,0,0,1-.061.666,1.08,1.08,0,0,1-.093.182.314.314,0,0,1-.046.059,2.257,2.257,0,0,0,.117-.249,1.241,1.241,0,0,0,.05-.652.9.9,0,0,0-.325-.556.607.607,0,0,0-.251-.1s.007,0,.02,0a.265.265,0,0,1,.055.005.487.487,0,0,1,.19.078A.888.888,0,0,1,339.1,217.848Z" transform="translate(-338.489 -217.196)" fill="#b3191a"/>
          </g>
        </g>
        <g id="Group_135" data-name="Group 135" transform="translate(21.118 8.319)">
          <g id="Group_134" data-name="Group 134">
            <path id="Path_89" data-name="Path 89" d="M420.345,209.913a1.1,1.1,0,0,0-.592.042.934.934,0,0,0-.391.286.813.813,0,0,0-.15.295.963.963,0,0,1-.028.121.3.3,0,0,1,0-.127.756.756,0,0,1,.137-.318.948.948,0,0,1,.406-.315,1.133,1.133,0,0,1,.627-.051,1.6,1.6,0,0,1,.58.239,2.464,2.464,0,0,1,.393.325c.1.1.178.192.229.255a.44.44,0,0,1,.073.1c-.008.007-.126-.128-.334-.324A1.969,1.969,0,0,0,420.345,209.913Z" transform="translate(-419.18 -209.826)" fill="#c92526"/>
          </g>
        </g>
        <g id="Group_137" data-name="Group 137" transform="translate(22.293 12.853)">
          <g id="Group_136" data-name="Group 136">
            <path id="Path_90" data-name="Path 90" d="M424.744,230.75a5.117,5.117,0,0,0,0-.913,2.4,2.4,0,0,1-.019-.382,2,2,0,0,1,.065.377,4.076,4.076,0,0,1,.022.925,2.065,2.065,0,0,1-.29.879,1.328,1.328,0,0,1-.174.222c-.047.047-.076.069-.079.066s.1-.11.213-.313A2.252,2.252,0,0,0,424.744,230.75Z" transform="translate(-424.266 -229.455)" fill="#c92526"/>
          </g>
        </g>
        <g id="Group_139" data-name="Group 139" transform="translate(18.79 17.676)">
          <g id="Group_138" data-name="Group 138">
            <path id="Path_91" data-name="Path 91" d="M409.1,252.087a2.809,2.809,0,0,1,.329-1.3,2.452,2.452,0,0,1,.22-.343.558.558,0,0,1,.1-.111c.01.007-.127.171-.278.475a2.883,2.883,0,0,0-.015,2.552c.147.306.283.471.272.478a.573.573,0,0,1-.1-.113,2.461,2.461,0,0,1-.216-.345A2.811,2.811,0,0,1,409.1,252.087Z" transform="translate(-409.099 -250.337)" fill="#c92526"/>
          </g>
        </g>
        <g id="Group_141" data-name="Group 141" transform="translate(12.25 23.154)">
          <g id="Group_140" data-name="Group 140">
            <path id="Path_92" data-name="Path 92" d="M382.4,274.333a5.893,5.893,0,0,1-1.15-.084c-.145-.026-.262-.051-.342-.073a.486.486,0,0,1-.122-.04c0-.011.181.027.471.067a7.044,7.044,0,0,0,2.278-.058c.288-.054.464-.1.467-.09a.484.484,0,0,1-.12.046c-.078.026-.193.057-.337.09A5.885,5.885,0,0,1,382.4,274.333Z" transform="translate(-380.783 -274.054)" fill="#c92526"/>
          </g>
        </g>
        <g id="Group_143" data-name="Group 143" transform="translate(6.822 20.621)">
          <g id="Group_142" data-name="Group 142">
            <path id="Path_93" data-name="Path 93" d="M357.84,263.194a1.26,1.26,0,0,1,.558-.107,2.107,2.107,0,0,1,.456.067c.127.032.227.065.3.088a.369.369,0,0,1,.1.044,4.187,4.187,0,0,1-.411-.087,2.329,2.329,0,0,0-.447-.052,1.246,1.246,0,0,0-.529.106.911.911,0,0,0-.392.358,1.048,1.048,0,0,0-.142.417,1.4,1.4,0,0,0,.032.411.3.3,0,0,1-.046-.1.846.846,0,0,1-.033-.31,1.038,1.038,0,0,1,.136-.444A.949.949,0,0,1,357.84,263.194Z" transform="translate(-357.286 -263.087)" fill="#c92526"/>
          </g>
        </g>
        <g id="Group_145" data-name="Group 145" transform="translate(7.608 23.048)">
          <g id="Group_144" data-name="Group 144">
            <path id="Path_94" data-name="Path 94" d="M361.4,274.219a2.83,2.83,0,0,1-.533-.411.881.881,0,0,1-.179-.214,4.173,4.173,0,0,0,1.6.955.877.877,0,0,1-.273-.056A2.826,2.826,0,0,1,361.4,274.219Z" transform="translate(-360.688 -273.594)" fill="#c92526"/>
          </g>
        </g>
        <g id="Group_147" data-name="Group 147" transform="translate(11.589 24.69)">
          <g id="Group_146" data-name="Group 146">
            <path id="Path_95" data-name="Path 95" d="M378.729,280.887a2.083,2.083,0,0,1-.582-.077.669.669,0,0,1-.225-.091,3.03,3.03,0,0,0,1.612-.013.666.666,0,0,1-.224.1A2.082,2.082,0,0,1,378.729,280.887Z" transform="translate(-377.922 -280.703)" fill="#c92526"/>
          </g>
        </g>
        <g id="Group_149" data-name="Group 149" transform="translate(14.082 13.969)">
          <g id="Group_148" data-name="Group 148">
            <path id="Path_96" data-name="Path 96" d="M389.407,235.719a1.579,1.579,0,0,1-.668-.949,1.025,1.025,0,0,1-.014-.357.385.385,0,0,1,.032-.127,1.575,1.575,0,0,0,.027.474,1.6,1.6,0,0,0,.659.9,3.3,3.3,0,0,0,1.065.428c.289.069.47.106.469.116a.5.5,0,0,1-.13-.01c-.083-.011-.2-.03-.349-.06A3.04,3.04,0,0,1,389.407,235.719Z" transform="translate(-388.716 -234.286)" fill="#c92526"/>
          </g>
        </g>
        <g id="Group_151" data-name="Group 151" transform="translate(5.577 12.233)">
          <g id="Group_150" data-name="Group 150">
            <path id="Path_97" data-name="Path 97" d="M352.863,227.725a2.479,2.479,0,0,1-.541-.209.87.87,0,0,1-.355-.319.506.506,0,0,1-.067-.315.2.2,0,0,1,.04-.111c.006,0-.011.041-.014.113a.514.514,0,0,0,.082.289,1.493,1.493,0,0,0,.872.488,2.706,2.706,0,0,0,1.023.057c.263-.035.419-.091.423-.08a.406.406,0,0,1-.107.047,2.051,2.051,0,0,1-.308.079A2.5,2.5,0,0,1,352.863,227.725Z" transform="translate(-351.896 -226.77)" fill="#c92526"/>
          </g>
        </g>
        <g id="Group_153" data-name="Group 153" transform="translate(7.43 8.356)">
          <g id="Group_152" data-name="Group 152">
            <path id="Path_98" data-name="Path 98" d="M361.051,210.184a1.2,1.2,0,0,0-.8-.118c-.21.036-.335.084-.339.074s.028-.021.084-.044a1.522,1.522,0,0,1,.246-.076,1.365,1.365,0,0,1,.384-.029,1.06,1.06,0,0,1,.454.136.834.834,0,0,1,.331.341.727.727,0,0,1,.074.382.591.591,0,0,1-.077.25c-.032.053-.058.076-.061.074a.85.85,0,0,0,.091-.326.714.714,0,0,0-.081-.351A.8.8,0,0,0,361.051,210.184Z" transform="translate(-359.916 -209.987)" fill="#c92526"/>
          </g>
        </g>
        <g id="Group_155" data-name="Group 155" transform="translate(3.531 6.782)">
          <g id="Group_154" data-name="Group 154">
            <path id="Path_99" data-name="Path 99" d="M343.455,204.266a2.722,2.722,0,0,0,.71.474,2.3,2.3,0,0,1,.318.167,1.675,1.675,0,0,1-.339-.124,2.4,2.4,0,0,1-.736-.469,1.225,1.225,0,0,1-.37-.787.779.779,0,0,1,.031-.266.229.229,0,0,1,.04-.089,1.5,1.5,0,0,0-.025.352A1.254,1.254,0,0,0,343.455,204.266Z" transform="translate(-343.037 -203.171)" fill="#c92526"/>
          </g>
        </g>
        <g id="Group_157" data-name="Group 157" transform="translate(3.368 3.901)">
          <g id="Group_156" data-name="Group 156">
            <path id="Path_100" data-name="Path 100" d="M342.871,191.651a3.633,3.633,0,0,0-.265.461,3.383,3.383,0,0,0-.16.4c-.076.236-.1.389-.113.388a.364.364,0,0,1,.007-.109,2.091,2.091,0,0,1,.061-.292,2.848,2.848,0,0,1,.15-.417,3.013,3.013,0,0,1,.614-.89,2.883,2.883,0,0,1,.336-.288,2.082,2.082,0,0,1,.251-.161.339.339,0,0,1,.1-.046c.006.01-.128.088-.322.243a3.411,3.411,0,0,0-.321.294A3.654,3.654,0,0,0,342.871,191.651Z" transform="translate(-342.33 -190.701)" fill="#c92526"/>
          </g>
        </g>
        <g id="Group_159" data-name="Group 159" transform="translate(7.914 1.331)">
          <g id="Group_158" data-name="Group 158">
            <path id="Path_101" data-name="Path 101" d="M363.5,179.706a7.453,7.453,0,0,0-1.057.243c-.266.082-.427.144-.431.134a.443.443,0,0,1,.108-.056c.071-.033.176-.075.308-.122a5.858,5.858,0,0,1,2.155-.326c.14.006.253.015.331.025a.431.431,0,0,1,.12.022c0,.011-.173,0-.452,0A7.43,7.43,0,0,0,363.5,179.706Z" transform="translate(-362.014 -179.574)" fill="#c92526"/>
          </g>
        </g>
        <g id="Group_161" data-name="Group 161" transform="translate(11.784 0.866)">
          <g id="Group_160" data-name="Group 160">
            <path id="Path_102" data-name="Path 102" d="M379.758,177.9a2.222,2.222,0,0,0-.688-.257,1.715,1.715,0,0,1-.3-.076,1.256,1.256,0,0,1,.31.03,1.941,1.941,0,0,1,.714.247,1,1,0,0,1,.448.605.63.63,0,0,1,.01.232c-.009.054-.02.082-.024.082a1.3,1.3,0,0,0-.032-.3A1.023,1.023,0,0,0,379.758,177.9Z" transform="translate(-378.769 -177.561)" fill="#c92526"/>
          </g>
        </g>
        <g id="Group_163" data-name="Group 163" transform="translate(10.43 4.936)">
          <g id="Group_162" data-name="Group 162">
            <path id="Path_103" data-name="Path 103" d="M372.92,196.024a1.126,1.126,0,0,1,.085-.625.55.55,0,0,1,.145-.217c.009.006-.047.088-.1.235a1.183,1.183,0,0,0,.175,1.148c.1.124.173.185.167.194a.551.551,0,0,1-.2-.164A1.125,1.125,0,0,1,372.92,196.024Z" transform="translate(-372.908 -195.182)" fill="#c92526"/>
          </g>
        </g>
        <g id="Group_165" data-name="Group 165" transform="translate(18.635 10.806)">
          <g id="Group_164" data-name="Group 164">
            <path id="Path_104" data-name="Path 104" d="M409.552,221.591a1.561,1.561,0,0,1-.777.3,1.3,1.3,0,0,1-.254,0,.232.232,0,0,1-.091-.018c0-.012.132,0,.339-.029a1.621,1.621,0,0,0,1.246-.936c.088-.19.112-.32.123-.317a.241.241,0,0,1-.008.093,1.3,1.3,0,0,1-.072.243A1.563,1.563,0,0,1,409.552,221.591Z" transform="translate(-408.43 -220.593)" fill="#c92526"/>
          </g>
        </g>
        <g id="Group_167" data-name="Group 167" transform="translate(17.436 13.289)">
          <g id="Group_166" data-name="Group 166">
            <path id="Path_105" data-name="Path 105" d="M404.326,232.9a2.367,2.367,0,0,0,.216-1.088c-.012-.288-.064-.461-.052-.464a.415.415,0,0,1,.042.12,1.9,1.9,0,0,1,.057.342,2.217,2.217,0,0,1-.933,1.991,1.92,1.92,0,0,1-.3.175.423.423,0,0,1-.119.044c-.006-.011.161-.082.39-.257A2.362,2.362,0,0,0,404.326,232.9Z" transform="translate(-403.237 -231.343)" fill="#c92526"/>
          </g>
        </g>
        <g id="Group_169" data-name="Group 169" transform="translate(22.847 10.443)">
          <g id="Group_168" data-name="Group 168">
            <path id="Path_106" data-name="Path 106" d="M427.5,219.766a4.084,4.084,0,0,0-.572-.541,2.852,2.852,0,0,1-.26-.2,1.16,1.16,0,0,1,.288.164,3.235,3.235,0,0,1,1.039,1.2,1.161,1.161,0,0,1,.121.309,2.788,2.788,0,0,1-.162-.286A4.105,4.105,0,0,0,427.5,219.766Z" transform="translate(-426.665 -219.023)" fill="#c92526"/>
          </g>
        </g>
      </g>
      <g id="Group_174" data-name="Group 174" transform="translate(0 0)">
        <g id="Group_171" data-name="Group 171" transform="translate(2.412 3.577)" opacity="0.1">
          <g id="Group_170" data-name="Group 170">
            <path id="Path_107" data-name="Path 107" d="M359.3,189.3a14.129,14.129,0,0,1-21.111,18.449A14.129,14.129,0,1,0,359.3,189.3Z" transform="translate(-338.192 -189.298)"/>
          </g>
        </g>
        <g id="Group_173" data-name="Group 173" opacity="0.05">
          <g id="Group_172" data-name="Group 172">
            <path id="Path_108" data-name="Path 108" d="M346.787,176.861a14.25,14.25,0,0,0-.177-2.238,14.136,14.136,0,0,0-18.683,15.554,14.136,14.136,0,0,0,18.86-13.316Z" transform="translate(-327.75 -173.81)" fill="#fff"/>
          </g>
        </g>
      </g>
    </g>
  </g>
</svg>